<mxfile host="Electron" agent="Mozilla/5.0 (Windows NT 10.0; Win64; x64) AppleWebKit/537.36 (KHTML, like Gecko) draw.io/28.1.2 Chrome/138.0.7204.243 Electron/37.4.0 Safari/537.36" version="28.1.2">
  <diagram name="Page-1" id="WnI0Jysh7r_wj23Fj43k">
    <mxGraphModel dx="2710" dy="574" grid="0" gridSize="10" guides="1" tooltips="1" connect="1" arrows="1" fold="1" page="1" pageScale="1" pageWidth="827" pageHeight="1169" math="0" shadow="0">
      <root>
        <mxCell id="0" />
        <mxCell id="1" parent="0" />
        <mxCell id="2HI9qUTlG7rNMJICZR-s-2" value="&lt;p style=&quot;margin:0px;margin-top:4px;text-align:center;&quot;&gt;Branch&lt;/p&gt;&lt;hr size=&quot;1&quot; style=&quot;border-style:solid;&quot;&gt;&lt;p style=&quot;margin:0px;margin-left:4px;&quot;&gt;- branchName: String&lt;br&gt;- location: String&lt;/p&gt;&lt;hr size=&quot;1&quot; style=&quot;border-style:solid;&quot;&gt;&lt;p style=&quot;margin:0px;margin-left:4px;&quot;&gt;+ Branch (branchName: String, location: String)&lt;br&gt;+ getBranchName(): String&lt;/p&gt;&lt;p style=&quot;margin:0px;margin-left:4px;&quot;&gt;+ getLocation(): String&lt;/p&gt;&lt;p style=&quot;margin:0px;margin-left:4px;&quot;&gt;+ toString(): String&lt;/p&gt;" style="verticalAlign=top;align=left;overflow=fill;html=1;whiteSpace=wrap;" parent="1" vertex="1">
          <mxGeometry x="-742" y="23" width="265" height="140" as="geometry" />
        </mxCell>
        <mxCell id="2HI9qUTlG7rNMJICZR-s-3" value="&lt;p style=&quot;margin:0px;margin-top:4px;text-align:center;&quot;&gt;Account&lt;/p&gt;&lt;hr size=&quot;1&quot; style=&quot;border-style:solid;&quot;&gt;&lt;p style=&quot;margin:0px;margin-left:4px;&quot;&gt;- accountNumber: String&lt;/p&gt;&lt;p style=&quot;margin:0px;margin-left:4px;&quot;&gt;- balance: double&lt;/p&gt;&lt;p style=&quot;margin:0px;margin-left:4px;&quot;&gt;- branch: Branch&lt;/p&gt;&lt;p style=&quot;margin:0px;margin-left:4px;&quot;&gt;- customer: Customer&lt;/p&gt;&lt;hr size=&quot;1&quot; style=&quot;border-style:solid;&quot;&gt;&lt;p style=&quot;margin:0px;margin-left:4px;&quot;&gt;+ Account(accountNumber: String, balance: double, branch: Branch, customer: Customer)&lt;/p&gt;&lt;p style=&quot;margin:0px;margin-left:4px;&quot;&gt;+ getAccountNumber(): int&lt;/p&gt;&lt;p style=&quot;margin:0px;margin-left:4px;&quot;&gt;+ getBalance(): double&lt;/p&gt;&lt;p style=&quot;margin:0px;margin-left:4px;&quot;&gt;+ getBranch(): Branch&lt;/p&gt;&lt;p style=&quot;margin:0px;margin-left:4px;&quot;&gt;+ getCustomer(): Customer&lt;/p&gt;&lt;p style=&quot;margin:0px;margin-left:4px;&quot;&gt;+ deposit(amount: double): void&lt;/p&gt;&lt;p style=&quot;margin:0px;margin-left:4px;&quot;&gt;+ withdraw(amount: double): void&lt;/p&gt;&lt;p style=&quot;margin:0px;margin-left:4px;&quot;&gt;+ toString(): String&lt;/p&gt;" style="verticalAlign=top;align=left;overflow=fill;html=1;whiteSpace=wrap;" parent="1" vertex="1">
          <mxGeometry x="-787" y="230" width="370" height="240" as="geometry" />
        </mxCell>
        <mxCell id="2HI9qUTlG7rNMJICZR-s-4" value="&lt;p style=&quot;margin:0px;margin-top:4px;text-align:center;&quot;&gt;Customer&lt;/p&gt;&lt;hr size=&quot;1&quot; style=&quot;border-style:solid;&quot;&gt;&lt;p style=&quot;margin:0px;margin-left:4px;&quot;&gt;- name: String&lt;/p&gt;&lt;p style=&quot;margin:0px;margin-left:4px;&quot;&gt;- address: String&lt;/p&gt;&lt;p style=&quot;margin:0px;margin-left:4px;&quot;&gt;- phone: String&lt;/p&gt;&lt;hr size=&quot;1&quot; style=&quot;border-style:solid;&quot;&gt;&lt;p style=&quot;margin:0px;margin-left:4px;&quot;&gt;+ Customer(name: String, address: String, phone: String)&lt;/p&gt;&lt;p style=&quot;margin:0px;margin-left:4px;&quot;&gt;+ getName(): String&lt;/p&gt;&lt;p style=&quot;margin:0px;margin-left:4px;&quot;&gt;+ getAddress(): String&lt;/p&gt;&lt;p style=&quot;margin:0px;margin-left:4px;&quot;&gt;+ getPhone(): String&lt;/p&gt;&lt;p style=&quot;margin:0px;margin-left:4px;&quot;&gt;+ toString(): String&lt;/p&gt;" style="verticalAlign=top;align=left;overflow=fill;html=1;whiteSpace=wrap;" parent="1" vertex="1">
          <mxGeometry x="-228" y="253" width="310" height="160" as="geometry" />
        </mxCell>
        <mxCell id="2HI9qUTlG7rNMJICZR-s-5" value="&lt;p style=&quot;margin:0px;margin-top:4px;text-align:center;&quot;&gt;CommercialCustomer&lt;/p&gt;&lt;hr size=&quot;1&quot; style=&quot;border-style:solid;&quot;&gt;&lt;p style=&quot;margin:0px;margin-left:4px;&quot;&gt;- creditRating: String&lt;/p&gt;&lt;p style=&quot;margin:0px;margin-left:4px;&quot;&gt;- contactPerson: String&lt;/p&gt;&lt;p style=&quot;margin:0px;margin-left:4px;&quot;&gt;- contactPhone: String&lt;/p&gt;&lt;hr size=&quot;1&quot; style=&quot;border-style:solid;&quot;&gt;&lt;p style=&quot;margin:0px;margin-left:4px;&quot;&gt;+ CommercialCustomer(name: String, address: String, phone: String,&amp;nbsp;&lt;span style=&quot;background-color: transparent; color: light-dark(rgb(0, 0, 0), rgb(255, 255, 255));&quot;&gt;creditRating: String, contactPerson: String, contactPhone: String)&lt;/span&gt;&lt;/p&gt;&lt;p style=&quot;margin:0px;margin-left:4px;&quot;&gt;+ getCreditRating(): String&lt;/p&gt;&lt;p style=&quot;margin:0px;margin-left:4px;&quot;&gt;+ getContactPerson(): String&lt;/p&gt;&lt;p style=&quot;margin:0px;margin-left:4px;&quot;&gt;+ getContactPhone(): String&lt;/p&gt;&lt;p style=&quot;margin:0px;margin-left:4px;&quot;&gt;+ toString(): String&lt;/p&gt;" style="verticalAlign=top;align=left;overflow=fill;html=1;whiteSpace=wrap;" parent="1" vertex="1">
          <mxGeometry x="136" y="401" width="400" height="180" as="geometry" />
        </mxCell>
        <mxCell id="2HI9qUTlG7rNMJICZR-s-6" value="&lt;p style=&quot;margin:0px;margin-top:4px;text-align:center;&quot;&gt;PersonalCustomer&lt;/p&gt;&lt;hr size=&quot;1&quot; style=&quot;border-style:solid;&quot;&gt;&lt;p style=&quot;margin:0px;margin-left:4px;&quot;&gt;- homePhone: String&lt;/p&gt;&lt;p style=&quot;margin:0px;margin-left:4px;&quot;&gt;- workPhone: String&lt;/p&gt;&lt;hr size=&quot;1&quot; style=&quot;border-style:solid;&quot;&gt;&lt;p style=&quot;margin:0px;margin-left:4px;&quot;&gt;+ PersonalCustomer(name: String, address: String, phone: String,&amp;nbsp;&lt;span style=&quot;background-color: transparent; color: light-dark(rgb(0, 0, 0), rgb(255, 255, 255));&quot;&gt;homePhone: String, workPhone: String)&lt;/span&gt;&lt;/p&gt;&lt;p style=&quot;margin:0px;margin-left:4px;&quot;&gt;+ getHomePhone(): String&lt;/p&gt;&lt;p style=&quot;margin:0px;margin-left:4px;&quot;&gt;+ getWorkPhone(): String&lt;/p&gt;&lt;p style=&quot;margin:0px;margin-left:4px;&quot;&gt;+ toString(): String&lt;/p&gt;" style="verticalAlign=top;align=left;overflow=fill;html=1;whiteSpace=wrap;" parent="1" vertex="1">
          <mxGeometry x="-95" y="605" width="310" height="160" as="geometry" />
        </mxCell>
        <mxCell id="2HI9qUTlG7rNMJICZR-s-9" value="&lt;p style=&quot;margin:0px;margin-top:4px;text-align:center;&quot;&gt;CheckingAccount&lt;/p&gt;&lt;hr size=&quot;1&quot; style=&quot;border-style:solid;&quot;&gt;&lt;p style=&quot;margin:0px;margin-left:4px;&quot;&gt;- checkStyle: String&lt;/p&gt;&lt;p style=&quot;margin:0px;margin-left:4px;&quot;&gt;- minBalance: double&lt;/p&gt;&lt;hr size=&quot;1&quot; style=&quot;border-style:solid;&quot;&gt;&lt;p style=&quot;margin:0px;margin-left:4px;&quot;&gt;+ CheckingAccount(accountNumber: int, balance: double, branch: Branch, customer: Customer,&amp;nbsp;&lt;span style=&quot;background-color: transparent; color: light-dark(rgb(0, 0, 0), rgb(255, 255, 255));&quot;&gt;checkStyle: String, minBalance: double)&lt;/span&gt;&lt;/p&gt;&lt;p style=&quot;margin:0px;margin-left:4px;&quot;&gt;+ getCheckStyle(): String&lt;/p&gt;&lt;p style=&quot;margin:0px;margin-left:4px;&quot;&gt;+ getMinBalance(): double&lt;/p&gt;&lt;p style=&quot;margin:0px;margin-left:4px;&quot;&gt;+ toString(): String&lt;/p&gt;" style="verticalAlign=top;align=left;overflow=fill;html=1;whiteSpace=wrap;" parent="1" vertex="1">
          <mxGeometry x="-444" y="567" width="310" height="170" as="geometry" />
        </mxCell>
        <mxCell id="2HI9qUTlG7rNMJICZR-s-10" value="&lt;p style=&quot;margin:0px;margin-top:4px;text-align:center;&quot;&gt;SavingsAccount&lt;/p&gt;&lt;hr size=&quot;1&quot; style=&quot;border-style:solid;&quot;&gt;&lt;p style=&quot;margin:0px;margin-left:4px;&quot;&gt;- interestRatePercent: double&lt;br&gt;&lt;/p&gt;&lt;hr size=&quot;1&quot; style=&quot;border-style:solid;&quot;&gt;&lt;p style=&quot;margin:0px;margin-left:4px;&quot;&gt;+ SavingsAccount(accountNumber: int, balance: double, branch: Branch, customer: Customer,&lt;span style=&quot;background-color: transparent; color: light-dark(rgb(0, 0, 0), rgb(255, 255, 255));&quot;&gt;&amp;nbsp;interestRatePercent: double)&lt;/span&gt;&lt;/p&gt;&lt;p style=&quot;margin:0px;margin-left:4px;&quot;&gt;+ getInterestRate(): double&lt;/p&gt;&lt;p style=&quot;margin:0px;margin-left:4px;&quot;&gt;+ calculateInterest(): void&lt;/p&gt;&lt;p style=&quot;margin:0px;margin-left:4px;&quot;&gt;+ toString(): String&lt;/p&gt;" style="verticalAlign=top;align=left;overflow=fill;html=1;whiteSpace=wrap;" parent="1" vertex="1">
          <mxGeometry x="-815" y="585" width="357" height="157" as="geometry" />
        </mxCell>
        <mxCell id="2HI9qUTlG7rNMJICZR-s-11" value="&lt;p style=&quot;margin:0px;margin-top:4px;text-align:center;&quot;&gt;BankTest&lt;/p&gt;&lt;hr size=&quot;1&quot; style=&quot;border-style:solid;&quot;&gt;&lt;p style=&quot;margin:0px;margin-left:4px;&quot;&gt;+ main(args: String[]): void&lt;/p&gt;&lt;p style=&quot;margin:0px;margin-left:4px;&quot;&gt;+ displayAccountInfo(acc: Account): void&lt;/p&gt;" style="verticalAlign=top;align=left;overflow=fill;html=1;whiteSpace=wrap;" parent="1" vertex="1">
          <mxGeometry x="-351" y="38" width="337" height="73" as="geometry" />
        </mxCell>
        <mxCell id="2HI9qUTlG7rNMJICZR-s-12" value="" style="triangle;whiteSpace=wrap;html=1;rotation=-90;" parent="1" vertex="1">
          <mxGeometry x="-541" y="466" width="15" height="23" as="geometry" />
        </mxCell>
        <mxCell id="2HI9qUTlG7rNMJICZR-s-13" value="" style="triangle;whiteSpace=wrap;html=1;rotation=-90;" parent="1" vertex="1">
          <mxGeometry x="-689" y="466" width="15" height="24" as="geometry" />
        </mxCell>
        <mxCell id="2HI9qUTlG7rNMJICZR-s-14" value="" style="triangle;whiteSpace=wrap;html=1;rotation=-90;" parent="1" vertex="1">
          <mxGeometry x="-98" y="410" width="16.5" height="25" as="geometry" />
        </mxCell>
        <mxCell id="2HI9qUTlG7rNMJICZR-s-15" value="" style="triangle;whiteSpace=wrap;html=1;rotation=-180;" parent="1" vertex="1">
          <mxGeometry x="82" y="304" width="18.5" height="24.5" as="geometry" />
        </mxCell>
        <mxCell id="2HI9qUTlG7rNMJICZR-s-16" value="" style="endArrow=none;html=1;rounded=0;entryX=0.5;entryY=0;entryDx=0;entryDy=0;exitX=0;exitY=0.5;exitDx=0;exitDy=0;" parent="1" source="2HI9qUTlG7rNMJICZR-s-15" target="2HI9qUTlG7rNMJICZR-s-5" edge="1">
          <mxGeometry width="50" height="50" relative="1" as="geometry">
            <mxPoint x="329" y="475" as="sourcePoint" />
            <mxPoint x="278" y="389" as="targetPoint" />
          </mxGeometry>
        </mxCell>
        <mxCell id="2HI9qUTlG7rNMJICZR-s-17" value="" style="endArrow=none;html=1;rounded=0;exitX=0;exitY=0.5;exitDx=0;exitDy=0;entryX=0.473;entryY=0.006;entryDx=0;entryDy=0;entryPerimeter=0;" parent="1" source="2HI9qUTlG7rNMJICZR-s-14" target="2HI9qUTlG7rNMJICZR-s-6" edge="1">
          <mxGeometry width="50" height="50" relative="1" as="geometry">
            <mxPoint x="228" y="439" as="sourcePoint" />
            <mxPoint x="278" y="389" as="targetPoint" />
          </mxGeometry>
        </mxCell>
        <mxCell id="2HI9qUTlG7rNMJICZR-s-18" value="" style="endArrow=none;html=1;rounded=0;exitX=0;exitY=0.5;exitDx=0;exitDy=0;entryX=0.5;entryY=0;entryDx=0;entryDy=0;" parent="1" source="2HI9qUTlG7rNMJICZR-s-12" target="2HI9qUTlG7rNMJICZR-s-9" edge="1">
          <mxGeometry width="50" height="50" relative="1" as="geometry">
            <mxPoint x="-195" y="556" as="sourcePoint" />
            <mxPoint x="-145" y="506" as="targetPoint" />
          </mxGeometry>
        </mxCell>
        <mxCell id="2HI9qUTlG7rNMJICZR-s-19" value="" style="endArrow=none;html=1;rounded=0;exitX=0;exitY=0.5;exitDx=0;exitDy=0;entryX=0.5;entryY=0;entryDx=0;entryDy=0;" parent="1" source="2HI9qUTlG7rNMJICZR-s-13" target="2HI9qUTlG7rNMJICZR-s-10" edge="1">
          <mxGeometry width="50" height="50" relative="1" as="geometry">
            <mxPoint x="-195" y="556" as="sourcePoint" />
            <mxPoint x="-145" y="506" as="targetPoint" />
          </mxGeometry>
        </mxCell>
        <mxCell id="2HI9qUTlG7rNMJICZR-s-20" value="" style="endArrow=classic;html=1;rounded=0;exitX=0.5;exitY=0;exitDx=0;exitDy=0;entryX=0.5;entryY=1;entryDx=0;entryDy=0;" parent="1" source="2HI9qUTlG7rNMJICZR-s-3" target="2HI9qUTlG7rNMJICZR-s-2" edge="1">
          <mxGeometry width="50" height="50" relative="1" as="geometry">
            <mxPoint x="-195" y="321" as="sourcePoint" />
            <mxPoint x="-145" y="271" as="targetPoint" />
          </mxGeometry>
        </mxCell>
        <mxCell id="2HI9qUTlG7rNMJICZR-s-24" value="" style="endArrow=none;dashed=1;html=1;rounded=0;exitX=0.989;exitY=0.753;exitDx=0;exitDy=0;exitPerimeter=0;" parent="1" source="2HI9qUTlG7rNMJICZR-s-31" edge="1">
          <mxGeometry width="50" height="50" relative="1" as="geometry">
            <mxPoint x="-658" y="249" as="sourcePoint" />
            <mxPoint x="-198" y="116" as="targetPoint" />
          </mxGeometry>
        </mxCell>
        <mxCell id="2HI9qUTlG7rNMJICZR-s-25" value="" style="endArrow=none;dashed=1;html=1;rounded=0;exitX=0.5;exitY=0;exitDx=0;exitDy=0;" parent="1" source="2HI9qUTlG7rNMJICZR-s-4" edge="1">
          <mxGeometry width="50" height="50" relative="1" as="geometry">
            <mxPoint x="-151" y="319" as="sourcePoint" />
            <mxPoint x="-176" y="120" as="targetPoint" />
          </mxGeometry>
        </mxCell>
        <mxCell id="2HI9qUTlG7rNMJICZR-s-26" value="" style="endArrow=classic;html=1;rounded=0;exitX=0.5;exitY=0;exitDx=0;exitDy=0;entryX=0.992;entryY=0.614;entryDx=0;entryDy=0;entryPerimeter=0;" parent="1" source="2HI9qUTlG7rNMJICZR-s-4" target="2HI9qUTlG7rNMJICZR-s-2" edge="1">
          <mxGeometry width="50" height="50" relative="1" as="geometry">
            <mxPoint x="-151" y="319" as="sourcePoint" />
            <mxPoint x="-217" y="215" as="targetPoint" />
          </mxGeometry>
        </mxCell>
        <mxCell id="2HI9qUTlG7rNMJICZR-s-27" value="" style="endArrow=classic;html=1;rounded=0;entryX=0.5;entryY=1;entryDx=0;entryDy=0;" parent="1" target="2HI9qUTlG7rNMJICZR-s-11" edge="1">
          <mxGeometry width="50" height="50" relative="1" as="geometry">
            <mxPoint x="-176" y="120" as="sourcePoint" />
            <mxPoint x="183" y="177" as="targetPoint" />
          </mxGeometry>
        </mxCell>
        <mxCell id="2HI9qUTlG7rNMJICZR-s-28" value="" style="endArrow=classic;html=1;rounded=0;entryX=0.5;entryY=1;entryDx=0;entryDy=0;" parent="1" target="2HI9qUTlG7rNMJICZR-s-11" edge="1">
          <mxGeometry width="50" height="50" relative="1" as="geometry">
            <mxPoint x="-199" y="116" as="sourcePoint" />
            <mxPoint x="182" y="175" as="targetPoint" />
          </mxGeometry>
        </mxCell>
        <mxCell id="2HI9qUTlG7rNMJICZR-s-29" value="1" style="text;html=1;align=center;verticalAlign=middle;resizable=0;points=[];autosize=1;strokeColor=none;fillColor=none;" parent="1" vertex="1">
          <mxGeometry x="-630" y="160" width="25" height="26" as="geometry" />
        </mxCell>
        <mxCell id="2HI9qUTlG7rNMJICZR-s-30" value="1" style="text;html=1;align=center;verticalAlign=middle;resizable=0;points=[];autosize=1;strokeColor=none;fillColor=none;" parent="1" vertex="1">
          <mxGeometry x="-469" y="116" width="25" height="26" as="geometry" />
        </mxCell>
        <mxCell id="2HI9qUTlG7rNMJICZR-s-31" value="*" style="text;html=1;align=center;verticalAlign=middle;resizable=0;points=[];autosize=1;strokeColor=none;fillColor=none;" parent="1" vertex="1">
          <mxGeometry x="-621" y="210" width="23" height="26" as="geometry" />
        </mxCell>
        <mxCell id="2HI9qUTlG7rNMJICZR-s-32" value="*" style="text;html=1;align=center;verticalAlign=middle;resizable=0;points=[];autosize=1;strokeColor=none;fillColor=none;" parent="1" vertex="1">
          <mxGeometry x="-138" y="236" width="23" height="26" as="geometry" />
        </mxCell>
        <mxCell id="2HI9qUTlG7rNMJICZR-s-36" style="edgeStyle=orthogonalEdgeStyle;rounded=0;orthogonalLoop=1;jettySize=auto;html=1;exitX=0.5;exitY=1;exitDx=0;exitDy=0;" parent="1" source="2HI9qUTlG7rNMJICZR-s-9" target="2HI9qUTlG7rNMJICZR-s-9" edge="1">
          <mxGeometry relative="1" as="geometry" />
        </mxCell>
      </root>
    </mxGraphModel>
  </diagram>
</mxfile>
